<?xml version="1.0" standalone="no"?>
<!DOCTYPE svg PUBLIC "-//W3C//DTD SVG 20010904//EN"
 "http://www.w3.org/TR/2001/REC-SVG-20010904/DTD/svg10.dtd">
<svg version="1.0" xmlns="http://www.w3.org/2000/svg"
 width="800.000000pt" height="800.000000pt" viewBox="0 0 800.000000 800.000000"
 preserveAspectRatio="xMidYMid meet">
<metadata>
Created by potrace 1.14, written by Peter Selinger 2001-2017
</metadata>
<g transform="translate(0.000000,800.000000) scale(0.100000,-0.100000)"
fill="#000000" stroke="none">
<path d="M5320 7685 c-287 -45 -552 -153 -785 -321 -342 -245 -605 -636 -701
-1043 -56 -238 -59 -584 -8 -831 37 -179 143 -436 249 -600 186 -290 432 -505
746 -654 206 -98 398 -148 634 -166 354 -28 688 36 991 188 182 92 402 263
535 417 193 223 355 551 413 835 47 230 47 527 0 760 -46 229 -191 542 -337
730 -221 283 -517 494 -852 608 -211 72 -287 84 -560 88 -166 2 -266 -1 -325
-11z m382 -1196 c126 -26 255 -118 322 -227 44 -72 81 -183 97 -290 21 -137
-16 -329 -87 -449 -160 -274 -569 -320 -799 -90 -59 59 -115 150 -137 222 -16
54 -38 189 -38 235 0 82 37 227 80 316 70 145 177 233 332 274 84 22 155 25
230 9z"/>
<path d="M781 7628 c-62 -23 -127 -84 -156 -143 -24 -50 -33 -190 -15 -249 20
-67 1170 -2876 1203 -2939 36 -69 81 -111 157 -146 54 -25 60 -26 305 -29 161
-2 265 1 295 8 64 16 142 71 189 132 30 41 176 382 644 1503 332 798 609 1465
616 1484 6 19 11 73 11 120 0 77 -3 91 -30 138 -35 60 -79 97 -150 124 -47 18
-80 19 -485 19 -418 0 -436 -1 -492 -21 -69 -26 -146 -100 -181 -176 -13 -27
-106 -313 -207 -634 l-183 -583 -15 49 c-8 28 -69 219 -135 425 -66 206 -144
449 -172 540 -29 91 -63 186 -76 213 -32 62 -90 119 -156 154 l-53 28 -430 2
c-415 2 -432 2 -484 -19z"/>
<path d="M1845 3931 c-774 -140 -1373 -764 -1475 -1537 -19 -143 -8 -512 20
-639 166 -773 780 -1340 1547 -1430 263 -31 450 -12 660 68 76 28 218 100 276
140 15 10 20 9 29 -8 25 -46 107 -113 163 -134 56 -21 70 -22 404 -19 334 3
348 4 394 25 80 37 143 97 179 171 l33 67 3 1489 c2 1370 1 1494 -14 1540 -23
70 -53 114 -113 168 -87 79 -111 83 -446 83 -284 0 -291 0 -343 -24 -63 -28
-133 -103 -158 -166 -9 -25 -21 -45 -27 -45 -6 0 -22 11 -36 24 -80 74 -280
169 -461 218 -109 30 -489 35 -635 9z m430 -1196 c330 -69 542 -401 470 -738
-24 -112 -69 -192 -160 -283 -95 -95 -183 -143 -307 -168 -95 -20 -143 -20
-233 -1 -258 54 -425 287 -425 591 0 401 299 674 655 599z"/>
<path d="M4338 3886 c-59 -21 -115 -72 -144 -132 -24 -48 -26 -63 -22 -132 7
-112 2 -103 383 -642 21 -30 81 -116 134 -190 52 -74 140 -199 195 -278 56
-79 132 -188 170 -242 l68 -99 -123 -173 c-67 -95 -166 -234 -219 -308 -53
-74 -152 -214 -220 -310 -68 -96 -168 -237 -222 -312 -156 -219 -196 -283
-209 -344 -32 -144 60 -309 191 -344 26 -7 210 -10 542 -8 l503 3 50 25 c97
49 137 102 309 412 88 158 161 286 162 285 2 -2 76 -133 164 -292 171 -307
207 -356 295 -403 l50 -27 501 -3 c493 -3 502 -2 560 19 156 57 222 218 159
386 -33 87 -14 59 -533 787 l-440 617 86 122 c47 67 123 174 167 237 45 63
120 169 167 235 227 321 268 379 351 495 190 268 182 252 185 351 4 81 2 92
-24 140 -30 54 -62 83 -132 118 -42 21 -49 22 -536 19 l-493 -3 -59 -36 c-80
-49 -129 -116 -313 -429 l-154 -261 -36 58 c-20 32 -97 155 -170 274 -163 264
-218 333 -290 371 l-53 28 -482 0 c-371 -1 -489 -4 -518 -14z"/>
</g>
</svg>
