<?xml version="1.0" standalone="no"?>
<!DOCTYPE svg PUBLIC "-//W3C//DTD SVG 20010904//EN"
 "http://www.w3.org/TR/2001/REC-SVG-20010904/DTD/svg10.dtd">
<svg version="1.0" xmlns="http://www.w3.org/2000/svg"
 width="768.000000pt" height="768.000000pt" viewBox="0 0 768.000000 768.000000"
 preserveAspectRatio="xMidYMid meet">
<metadata>
Created by potrace 1.11, written by Peter Selinger 2001-2013
</metadata>
<g transform="translate(0.000000,768.000000) scale(0.100000,-0.100000)"
fill="#000000" stroke="none">
<path d="M2555 4743 c-244 -50 -389 -125 -532 -277 -231 -245 -307 -576 -208
-906 51 -167 184 -350 335 -461 81 -59 229 -126 321 -144 274 -55 525 -8 739
138 246 168 396 473 384 781 -18 498 -416 877 -917 874 -56 -1 -111 -3 -122
-5z m288 -500 c34 -16 82 -49 106 -73 40 -40 95 -137 106 -189 3 -11 7 -31 10
-43 11 -44 8 -166 -5 -219 -30 -128 -120 -238 -227 -280 -85 -33 -215 -33
-303 0 -73 28 -163 108 -198 177 -90 176 -58 417 73 547 84 85 169 117 298
112 60 -3 91 -9 140 -32z"/>
<path d="M4540 4729 c-274 -61 -497 -232 -619 -474 -123 -245 -127 -554 -11
-802 145 -309 428 -500 770 -520 89 -5 117 -2 185 16 98 27 195 77 262 136 28
25 53 42 56 38 2 -5 10 -28 17 -53 32 -102 48 -109 270 -107 132 2 159 5 182
20 15 11 30 28 34 39 5 16 9 1434 5 1621 -1 19 -12 39 -32 58 l-31 29 -143 0
c-79 0 -151 -3 -160 -6 -21 -8 -48 -62 -75 -151 l-22 -72 -71 72 c-83 84 -161
129 -273 157 -98 25 -230 25 -344 -1z m330 -474 c241 -86 360 -369 251 -598
-103 -215 -371 -308 -581 -201 -130 66 -209 203 -215 373 -7 212 130 403 315
440 61 13 176 6 230 -14z"/>
<path d="M43 4720 c-23 -10 -43 -39 -43 -65 0 -8 15 -55 34 -103 36 -89 150
-371 165 -407 5 -11 16 -36 24 -55 8 -19 50 -120 92 -225 42 -104 82 -203 89
-220 8 -16 49 -115 91 -220 43 -104 99 -241 124 -304 61 -151 66 -154 213
-157 118 -2 160 7 189 42 9 11 103 228 209 484 106 256 201 483 210 505 10 22
40 94 68 160 27 66 82 198 122 293 40 95 74 190 77 211 9 67 -5 71 -262 71
-155 0 -227 -4 -245 -13 -28 -14 -51 -57 -78 -147 -11 -36 -43 -137 -70 -225
-55 -174 -180 -578 -189 -609 -4 -15 -7 -16 -14 -5 -11 17 -121 353 -244 744
-26 83 -54 167 -63 188 -24 62 -43 67 -274 66 -112 0 -213 -4 -225 -9z"/>
<path d="M5959 4709 c-14 -14 -18 -27 -13 -42 6 -20 112 -174 441 -641 l112
-159 -43 -61 c-24 -34 -150 -212 -281 -396 -131 -184 -242 -345 -248 -357 -13
-29 -1 -72 23 -81 11 -4 137 -7 280 -7 l260 0 24 25 c13 14 76 120 140 235 64
116 120 216 124 224 16 28 28 21 56 -31 16 -29 76 -138 134 -242 88 -158 110
-190 136 -201 35 -14 494 -15 533 -1 26 8 38 44 28 78 -9 28 -22 47 -243 358
-175 246 -192 269 -282 392 l-49 67 280 394 c285 403 303 434 260 457 -12 6
-115 10 -264 10 -242 0 -244 0 -269 -23 -14 -13 -72 -102 -129 -198 -56 -96
-118 -198 -137 -226 l-35 -53 -27 43 c-15 23 -60 96 -100 162 -112 185 -149
242 -177 269 l-26 26 -243 0 c-233 0 -245 -1 -265 -21z"/>
</g>
</svg>
