<?xml version="1.0" standalone="no"?>
<!DOCTYPE svg PUBLIC "-//W3C//DTD SVG 20010904//EN"
 "http://www.w3.org/TR/2001/REC-SVG-20010904/DTD/svg10.dtd">
<svg version="1.0" xmlns="http://www.w3.org/2000/svg"
 width="793.000000pt" height="793.000000pt" viewBox="0 0 793.000000 793.000000"
 preserveAspectRatio="xMidYMid meet">
<metadata>
Created by potrace 1.11, written by Peter Selinger 2001-2013
</metadata>
<g transform="translate(0.000000,793.000000) scale(0.100000,-0.100000)"
fill="#000000" stroke="none">
<path d="M10 4944 c0 -3 56 -115 124 -247 68 -133 203 -399 301 -592 265 -523
526 -1036 545 -1071 l16 -32 129 252 c207 406 362 711 525 1031 84 165 195
382 246 483 l94 182 -196 -2 -197 -3 -130 -255 c-71 -140 -204 -401 -295 -580
-90 -179 -168 -328 -171 -333 -6 -6 -93 161 -491 945 l-115 228 -192 0 c-106
0 -193 -3 -193 -6z"/>
<path d="M2989 4946 c-2 -2 -29 -6 -59 -9 -148 -16 -337 -96 -465 -197 -239
-191 -368 -455 -369 -755 0 -96 9 -191 24 -240 5 -16 17 -55 26 -85 85 -280
344 -530 639 -615 115 -33 174 -40 310 -38 417 6 792 298 903 703 80 289 27
594 -146 835 -171 239 -452 388 -753 400 -59 2 -108 3 -110 1z m244 -370 c114
-31 229 -105 307 -195 47 -57 57 -71 90 -141 49 -102 73 -285 49 -373 -4 -18
-10 -45 -13 -62 -3 -16 -24 -68 -47 -114 -58 -117 -156 -215 -271 -270 -154
-74 -273 -86 -453 -47 -75 16 -190 82 -262 149 -64 60 -129 162 -160 252 -23
69 -27 96 -27 200 -1 106 3 130 27 200 49 142 149 265 276 339 51 29 160 69
221 80 47 8 205 -3 263 -18z"/>
<path d="M6171 4703 c104 -137 200 -261 213 -278 69 -88 304 -395 324 -422 14
-19 20 -38 16 -45 -7 -12 -250 -330 -281 -368 -12 -15 -122 -159 -202 -265
-25 -33 -48 -62 -51 -65 -7 -7 -185 -242 -192 -255 -4 -7 67 -10 210 -10 l217
0 139 180 c134 172 262 339 348 453 22 28 43 52 47 51 3 0 124 -154 268 -342
l262 -342 220 0 c146 0 217 3 212 10 -5 5 -78 100 -163 210 -84 110 -190 247
-233 305 -44 58 -83 107 -86 110 -3 3 -25 32 -50 65 -24 33 -46 62 -49 65 -4
3 -41 51 -84 107 l-78 102 93 123 c52 68 96 125 99 128 3 3 26 32 51 65 83
110 190 250 202 265 7 8 55 71 107 140 52 69 97 127 100 130 3 3 27 33 54 68
l47 62 -222 -2 -223 -3 -108 -140 c-60 -77 -118 -153 -130 -168 -12 -15 -31
-41 -42 -56 -68 -94 -248 -321 -254 -320 -4 0 -32 35 -63 77 -31 42 -93 124
-137 182 -45 58 -137 177 -204 265 l-123 160 -222 3 -223 2 191 -247z"/>
<path d="M4777 4727 c-59 -116 -172 -338 -250 -492 -79 -154 -227 -444 -329
-645 -102 -201 -211 -414 -242 -475 -31 -60 -56 -110 -56 -112 0 -2 87 -3 193
-3 l192 0 61 118 c58 111 426 834 505 991 20 40 39 69 42 65 10 -18 140 -270
320 -624 102 -201 206 -407 232 -457 l48 -93 193 0 c107 0 194 2 194 4 0 1
-11 24 -25 50 -14 26 -98 190 -186 364 -131 256 -405 795 -440 862 -4 8 -32
65 -63 125 -153 306 -272 535 -276 535 -3 0 -54 -96 -113 -213z"/>
</g>
</svg>
